<svg width="93" height="17" viewBox="0 0 93 17" fill="none" xmlns="http://www.w3.org/2000/svg">
<path d="M44.5137 3.64461C45.3673 2.11339 45.794 1.34778 46.4321 1.34778C47.0702 1.34778 47.497 2.11338 48.3505 3.6446L48.5714 4.04075C48.8139 4.47587 48.9352 4.69344 49.1243 4.83698C49.3134 4.98053 49.5489 5.03382 50.0199 5.14039L50.4488 5.23742C52.1062 5.61245 52.935 5.79996 53.1322 6.43402C53.3294 7.06805 52.7644 7.72879 51.6344 9.05012L51.3421 9.39198C51.021 9.76746 50.8604 9.95521 50.7881 10.1875C50.716 10.4198 50.7402 10.6703 50.7887 11.1713L50.8329 11.6274C51.0038 13.3904 51.0892 14.2719 50.573 14.6637C50.0568 15.0556 49.2808 14.6983 47.7289 13.9838L47.3274 13.7989C46.8864 13.5958 46.6659 13.4943 46.4321 13.4943C46.1984 13.4943 45.9779 13.5958 45.5369 13.7989L45.1354 13.9838C43.5834 14.6983 42.8075 15.0556 42.2913 14.6637C41.775 14.2719 41.8605 13.3904 42.0313 11.6274L42.0755 11.1713C42.1241 10.6703 42.1483 10.4198 42.0761 10.1875C42.0039 9.95521 41.8433 9.76746 41.5222 9.39198L41.2299 9.05012C40.0999 7.72879 39.5349 7.06805 39.7321 6.43402C39.9292 5.79996 40.758 5.61245 42.4155 5.23742L42.8443 5.14039C43.3153 5.03382 43.5509 4.98053 43.74 4.83698C43.929 4.69344 44.0503 4.47587 44.2929 4.04075L44.5137 3.64461Z" fill="#FFBB6C"/>
<path d="M25.3409 3.64461C26.1944 2.11339 26.6212 1.34778 27.2593 1.34778C27.8974 1.34778 28.3241 2.11338 29.1777 3.6446L29.3985 4.04075C29.6411 4.47587 29.7623 4.69344 29.9515 4.83698C30.1406 4.98053 30.376 5.03382 30.8471 5.14039L31.2759 5.23742C32.9334 5.61245 33.7622 5.79996 33.9594 6.43402C34.1565 7.06805 33.5916 7.72879 32.4615 9.05012L32.1692 9.39198C31.8481 9.76746 31.6875 9.95521 31.6153 10.1875C31.5431 10.4198 31.5674 10.6703 31.6159 11.1713L31.6601 11.6274C31.8309 13.3904 31.9164 14.2719 31.4002 14.6637C30.8839 15.0556 30.108 14.6983 28.556 13.9838L28.1545 13.7989C27.7135 13.5958 27.493 13.4943 27.2593 13.4943C27.0255 13.4943 26.805 13.5958 26.364 13.7989L25.9625 13.9838C24.4106 14.6983 23.6346 15.0556 23.1184 14.6637C22.6022 14.2719 22.6876 13.3904 22.8585 11.6274L22.9027 11.1713C22.9512 10.6703 22.9755 10.4198 22.9032 10.1875C22.831 9.95521 22.6705 9.76746 22.3494 9.39198L22.057 9.05012C20.927 7.72879 20.362 7.06805 20.5592 6.43402C20.7564 5.79996 21.5851 5.61245 23.2427 5.23742L23.6715 5.14039C24.1425 5.03382 24.378 4.98053 24.5671 4.83698C24.7562 4.69344 24.8775 4.47587 25.12 4.04075L25.3409 3.64461Z" fill="#FFBB6C"/>
<path d="M63.6866 3.64461C64.5401 2.11339 64.9669 1.34778 65.605 1.34778C66.2431 1.34778 66.6698 2.11338 67.5234 3.6446L67.7442 4.04075C67.9868 4.47587 68.108 4.69344 68.2972 4.83698C68.4863 4.98053 68.7217 5.03382 69.1928 5.14039L69.6216 5.23742C71.2791 5.61245 72.1079 5.79996 72.3051 6.43402C72.5022 7.06805 71.9373 7.72879 70.8072 9.05012L70.5149 9.39198C70.1938 9.76746 70.0332 9.95521 69.961 10.1875C69.8888 10.4198 69.9131 10.6703 69.9616 11.1713L70.0058 11.6274C70.1766 13.3904 70.2621 14.2719 69.7459 14.6637C69.2296 15.0556 68.4537 14.6983 66.9017 13.9838L66.5002 13.7989C66.0592 13.5958 65.8387 13.4943 65.605 13.4943C65.3712 13.4943 65.1507 13.5958 64.7097 13.7989L64.3082 13.9838C62.7563 14.6983 61.9803 15.0556 61.4641 14.6637C60.9479 14.2719 61.0333 13.3904 61.2042 11.6274L61.2484 11.1713C61.2969 10.6703 61.3212 10.4198 61.2489 10.1875C61.1767 9.95521 61.0162 9.76746 60.6951 9.39198L60.4027 9.05012C59.2727 7.72879 58.7077 7.06805 58.9049 6.43402C59.1021 5.79996 59.9308 5.61245 61.5884 5.23742L62.0172 5.14039C62.4882 5.03382 62.7237 4.98053 62.9128 4.83698C63.1019 4.69344 63.2232 4.47587 63.4657 4.04075L63.6866 3.64461Z" fill="#FFBB6C"/>
<path d="M6.16801 3.64461C7.02157 2.11339 7.44833 1.34778 8.08643 1.34778C8.72452 1.34778 9.15129 2.11338 10.0048 3.6446L10.2256 4.04075C10.4682 4.47587 10.5895 4.69344 10.7786 4.83698C10.9677 4.98053 11.2032 5.03382 11.6742 5.14039L12.1031 5.23742C13.7605 5.61245 14.5893 5.79996 14.7865 6.43402C14.9837 7.06805 14.4187 7.72879 13.2887 9.05012L12.9964 9.39198C12.6753 9.76746 12.5147 9.95521 12.4424 10.1875C12.3703 10.4198 12.3945 10.6703 12.443 11.1713L12.4872 11.6274C12.6581 13.3904 12.7435 14.2719 12.2273 14.6637C11.7111 15.0556 10.9351 14.6983 9.38317 13.9838L8.98167 13.7989C8.54069 13.5958 8.32019 13.4943 8.08643 13.4943C7.85266 13.4943 7.63217 13.5958 7.19118 13.7989L6.78968 13.9838C5.23773 14.6983 4.46176 15.0556 3.94555 14.6637C3.42934 14.2719 3.51476 13.3904 3.68561 11.6274L3.7298 11.1713C3.77835 10.6703 3.80262 10.4198 3.73039 10.1875C3.65817 9.95521 3.49761 9.76746 3.17651 9.39198L2.88416 9.05012C1.75417 7.72879 1.18918 7.06805 1.38635 6.43402C1.58353 5.79996 2.41229 5.61245 4.06981 5.23742L4.49863 5.14039C4.96964 5.03382 5.20515 4.98053 5.39425 4.83698C5.58334 4.69344 5.70463 4.47587 5.94718 4.04075L6.16801 3.64461Z" fill="#FFBB6C"/>
<path d="M82.8594 3.64461C83.713 2.11339 84.1397 1.34778 84.7778 1.34778C85.4159 1.34778 85.8427 2.11338 86.6962 3.6446L86.9171 4.04075C87.1596 4.47587 87.2809 4.69344 87.47 4.83698C87.6591 4.98053 87.8946 5.03382 88.3656 5.14039L88.7945 5.23742C90.4519 5.61245 91.2807 5.79996 91.4779 6.43402C91.6751 7.06805 91.1101 7.72879 89.9801 9.05012L89.6878 9.39198C89.3667 9.76746 89.2061 9.95521 89.1338 10.1875C89.0617 10.4198 89.0859 10.6703 89.1344 11.1713L89.1787 11.6274C89.3495 13.3904 89.4349 14.2719 88.9187 14.6637C88.4025 15.0556 87.6265 14.6983 86.0746 13.9838L85.6731 13.7989C85.2321 13.5958 85.0116 13.4943 84.7778 13.4943C84.5441 13.4943 84.3236 13.5958 83.8826 13.7989L83.4811 13.9838C81.9291 14.6983 81.1532 15.0556 80.637 14.6637C80.1208 14.2719 80.2062 13.3904 80.377 11.6274L80.4212 11.1713C80.4698 10.6703 80.494 10.4198 80.4218 10.1875C80.3496 9.95521 80.189 9.76746 79.8679 9.39198L79.5756 9.05012C78.4456 7.72879 77.8806 7.06805 78.0778 6.43402C78.2749 5.79996 79.1037 5.61245 80.7612 5.23742L81.19 5.14039C81.6611 5.03382 81.8966 4.98053 82.0857 4.83698C82.2748 4.69344 82.396 4.47587 82.6386 4.04075L82.8594 3.64461Z" fill="#FFBB6C"/>
</svg>
