<svg width="209" height="209" viewBox="0 0 209 209" fill="none" xmlns="http://www.w3.org/2000/svg">
<path d="M80.8853 173.012C88.363 181.001 99.4276 185.613 111.335 184.589C123.243 183.565 133.358 177.132 139.362 167.984C120.179 172.283 100.521 173.973 80.8853 173.012Z" fill="#6D9DC5"/>
<path d="M156.467 75.7492L156.952 81.3921C157.535 88.1644 160.037 94.6189 164.143 99.9417L174.206 112.987C183.398 124.903 178.683 142.578 164.926 147.779C128.938 161.384 90.031 164.73 52.2481 157.468C37.8052 154.692 30.142 138.081 37.1644 124.772L44.8525 110.2C47.9899 104.254 49.3533 97.4671 48.7709 90.6948L48.2857 85.0518C45.6213 54.0679 67.6787 26.8679 97.5523 24.2991C127.425 21.7302 153.803 44.7652 156.467 75.7492Z" fill="#6D9DC5"/>
</svg>
