<?xml version="1.0" encoding="UTF-8"?>
<!DOCTYPE svg PUBLIC "-//W3C//DTD SVG 1.1//EN" "http://www.w3.org/Graphics/SVG/1.1/DTD/svg11.dtd">
<svg xmlns="http://www.w3.org/2000/svg" version="1.1" width="1024px" height="1024px" style="shape-rendering:geometricPrecision; text-rendering:geometricPrecision; image-rendering:optimizeQuality; fill-rule:evenodd; clip-rule:evenodd" xmlns:xlink="http://www.w3.org/1999/xlink">
<g><path style="opacity:1" fill="#bfd8b8" d="M 490.5,16.5 C 521.153,14.5317 551.153,18.0317 580.5,27C 651.263,50.0258 713.93,86.3591 768.5,136C 843.427,205.078 903.927,284.911 950,375.5C 972.406,422.389 986.073,471.723 991,523.5C 995.832,586.344 983.166,645.344 953,700.5C 929.296,736.539 899.796,767.039 864.5,792C 789.959,844.128 711.626,890.462 629.5,931C 560.727,964.145 488.393,985.145 412.5,994C 353.818,1000.39 296.151,995.389 239.5,979C 114.311,937.777 50.3114,851.11 47.5,719C 48.6803,665.098 58.847,612.931 78,562.5C 95.0107,519.485 114.344,477.485 136,436.5C 160.14,392.331 183.473,347.665 206,302.5C 223.884,262.065 241.218,221.398 258,180.5C 297.94,95.5749 363.773,42.7415 455.5,22C 467.247,19.7287 478.914,17.8954 490.5,16.5 Z"/></g>
</svg>
