<svg width="32" height="32" viewBox="0 0 32 32" fill="none" xmlns="http://www.w3.org/2000/svg">
<path fill-rule="evenodd" clip-rule="evenodd" d="M5.58339 15.1717C5.37338 15.6786 5.33335 15.9377 5.33335 15.9999V26.669C5.33335 27.4038 5.92871 27.9999 6.66669 27.9999H10.6667V19.9999C10.6667 18.5271 11.8606 17.3333 13.3334 17.3333H18.6667C20.1395 17.3333 21.3334 18.5271 21.3334 19.9999V27.9999H25.3334C26.0714 27.9999 26.6667 27.4038 26.6667 26.669V15.9999C26.6667 15.9377 26.6267 15.6786 26.4167 15.1717C26.2216 14.7007 25.9258 14.1234 25.5396 13.4699C24.7686 12.165 23.6867 10.6399 22.4758 9.18682C21.262 7.73042 19.9519 6.38617 18.7336 5.4193C18.1247 4.93597 17.5648 4.56803 17.074 4.32579C16.572 4.07808 16.2188 3.99992 16 3.99992C15.7812 3.99992 15.428 4.07808 14.926 4.32579C14.4352 4.56803 13.8754 4.93597 13.2664 5.4193C12.0481 6.38617 10.738 7.73042 9.52431 9.18682C8.31342 10.6399 7.2315 12.165 6.46042 13.4699C6.07426 14.1234 5.77849 14.7007 5.58339 15.1717ZM13.7459 1.93447C14.4471 1.58843 15.2188 1.33325 16 1.33325C16.7812 1.33325 17.553 1.58843 18.2542 1.93447C18.9664 2.28597 19.6879 2.7722 20.3914 3.33053C21.7982 4.447 23.238 5.93608 24.5243 7.47968C25.8135 9.0266 26.9815 10.6682 27.8355 12.1133C28.2618 12.8348 28.6223 13.5282 28.8803 14.1511C29.1234 14.7379 29.3334 15.3955 29.3334 15.9999V26.669C29.3334 28.8798 27.541 30.6666 25.3334 30.6666H21.3334C19.8606 30.6666 18.6667 29.4727 18.6667 27.9999V19.9999H13.3334V27.9999C13.3334 29.4727 12.1394 30.6666 10.6667 30.6666H6.66669C4.45914 30.6666 2.66669 28.8798 2.66669 26.669V15.9999C2.66669 15.3955 2.87666 14.7379 3.11978 14.1511C3.37781 13.5282 3.73827 12.8348 4.16462 12.1133C5.01854 10.6682 6.18662 9.0266 7.47573 7.47968C8.76205 5.93608 10.2019 4.447 11.6086 3.33053C12.3122 2.7722 13.0336 2.28597 13.7459 1.93447Z" fill="#6D9DC5"/>
</svg>
