<svg width="32" height="32" viewBox="0 0 32 32" fill="none" xmlns="http://www.w3.org/2000/svg">
<path d="M9.33331 9.33333C9.33331 8.59696 9.93027 8 10.6666 8H21.3333C22.0697 8 22.6666 8.59696 22.6666 9.33333C22.6666 10.0697 22.0697 10.6667 21.3333 10.6667H10.6666C9.93027 10.6667 9.33331 10.0697 9.33331 9.33333Z" fill="#2E2E2E"/>
<path d="M10.6666 12C9.93027 12 9.33331 12.5969 9.33331 13.3333C9.33331 14.0697 9.93027 14.6667 10.6666 14.6667H17.3333C18.0697 14.6667 18.6666 14.0697 18.6666 13.3333C18.6666 12.5969 18.0697 12 17.3333 12H10.6666Z" fill="#2E2E2E"/>
<path fill-rule="evenodd" clip-rule="evenodd" d="M9.33335 30.6666H25.3334C27.5426 30.6666 29.3334 28.8758 29.3334 26.6666V5.33325C29.3334 3.12412 27.5426 1.33325 25.3334 1.33325H9.33335C5.65146 1.33325 2.66669 4.31803 2.66669 7.99992V23.9999C2.66669 27.6073 5.70007 30.6666 9.33335 30.6666ZM5.33335 7.99992C5.33335 5.79078 7.12422 3.99992 9.33335 3.99992H25.3334C26.0698 3.99992 26.6667 4.59688 26.6667 5.33325V18.8942C26.2496 18.7469 25.8008 18.6666 25.3334 18.6666H9.33335C7.83254 18.6666 6.44757 19.1625 5.33335 19.9994V7.99992ZM26.6667 22.6666C26.6667 21.9302 26.0698 21.3333 25.3334 21.3333H9.33335C7.35135 21.3333 5.38866 22.7375 5.38866 24.6666C5.38866 26.5548 7.35135 27.9999 9.33335 27.9999H25.3334C26.0698 27.9999 26.6667 27.403 26.6667 26.6666V22.6666Z" fill="#2E2E2E"/>
</svg>
