<svg width="32" height="32" viewBox="0 0 32 32" fill="none" xmlns="http://www.w3.org/2000/svg">
<path d="M26.3035 17.0909C26.1695 16.5552 25.6265 16.2294 25.0908 16.3633L19.7575 17.6966C19.2217 17.8306 18.8959 18.3736 19.0299 18.9093C19.1639 19.4452 19.7068 19.7709 20.2425 19.6369L25.5759 18.3036C26.1116 18.1697 26.4375 17.6268 26.3035 17.0909Z" fill="#2E2E2E"/>
<path d="M26.3333 7.3335C26.3333 6.7812 25.8856 6.3335 25.3333 6.3335C24.7811 6.3335 24.3333 6.7812 24.3333 7.3335V11.9183L23.3343 11.4437L23.3225 11.4378C23.2572 11.4044 22.9817 11.2636 22.6667 11.2636C22.3516 11.2636 22.0761 11.4044 22.0108 11.4378L21.9991 11.4437L21 11.9183V9.26686C21 8.71456 20.5523 8.26686 20 8.26686C19.4477 8.26686 19 8.71456 19 9.26686V12.7164C18.9997 12.8647 18.9995 13.0761 19.0279 13.2576C19.0625 13.4796 19.1765 13.9078 19.6201 14.1682C20.0473 14.4192 20.4651 14.326 20.6637 14.2642C20.8368 14.2104 21.0267 14.12 21.1683 14.0525L22.6667 13.3408L24.1651 14.0525C24.3067 14.12 24.4965 14.2104 24.6696 14.2642C24.8683 14.326 25.286 14.4192 25.7132 14.1682C26.1568 13.9078 26.2708 13.4796 26.3055 13.2576C26.3339 13.0761 26.3336 12.8647 26.3333 12.7164V7.3335Z" fill="#2E2E2E"/>
<path d="M5.69654 11.7574C5.83048 11.2217 6.37343 10.8959 6.90922 11.0298L12.2425 12.3632C12.7783 12.4971 13.1041 13.0401 12.9702 13.5758C12.8362 14.1117 12.2933 14.4374 11.7575 14.3034L6.42415 12.9701C5.88835 12.8362 5.56259 12.2932 5.69654 11.7574Z" fill="#2E2E2E"/>
<path d="M6.90922 16.3633C6.37343 16.2294 5.83048 16.5552 5.69654 17.0909C5.56259 17.6268 5.88835 18.1697 6.42415 18.3036L11.7575 19.6369C12.2933 19.7709 12.8362 19.4452 12.9702 18.9093C13.1041 18.3736 12.7783 17.8306 12.2425 17.6966L6.90922 16.3633Z" fill="#2E2E2E"/>
<path d="M26.736 2.87476C28.8664 2.80055 30.4831 4.54926 30.4831 6.57788V21.5251C30.4829 23.6587 28.7566 25.3176 26.7184 25.4451C25.4424 25.5249 24.0163 25.6782 22.9606 25.9568C21.655 26.3013 20.0303 27.0708 18.7106 27.7742C17.0222 28.674 14.9771 28.6741 13.2888 27.7742C11.9691 27.0708 10.3453 26.3013 9.03973 25.9568C7.98387 25.6782 6.55714 25.5249 5.28094 25.4451C3.24287 25.3174 1.51644 23.6586 1.5163 21.5251V6.66382C1.51632 4.58536 3.20991 2.8185 5.38055 2.9519C6.69825 3.03289 8.33078 3.19591 9.62665 3.53784C11.159 3.9422 12.9177 4.78131 14.2468 5.48413C15.3056 6.04397 16.6092 6.01465 17.6559 5.40894C18.8214 4.73439 20.3265 3.95099 21.6706 3.54858C23.2164 3.08589 25.2163 2.92769 26.736 2.87476ZM5.23895 5.2478C4.48494 5.20169 3.8171 5.81598 3.81708 6.66382V21.5251C3.81723 22.3551 4.50765 23.0916 5.4245 23.1492C6.73335 23.231 8.3447 23.3939 9.62665 23.7322C11.2048 24.1487 13.0252 25.0266 14.3708 25.7439C14.5258 25.8265 14.6865 25.8955 14.8503 25.9529V8.09253C14.2717 7.98939 13.7051 7.79887 13.1725 7.51733C11.872 6.82963 10.3051 6.09636 9.03973 5.76245C7.97167 5.48061 6.52486 5.32683 5.23895 5.2478ZM26.8161 5.17261C25.3261 5.2245 23.5758 5.3787 22.3298 5.75171C21.2538 6.07385 19.94 6.74425 18.8083 7.39917C18.2871 7.70086 17.7263 7.9147 17.1501 8.04272V25.9529C17.3138 25.8956 17.4746 25.8265 17.6296 25.7439C18.975 25.0267 20.7948 24.1487 22.3727 23.7322C23.6548 23.3939 25.266 23.231 26.5749 23.1492C27.492 23.0918 28.1831 22.3552 28.1833 21.5251V6.57788C28.1833 5.74873 27.5458 5.14723 26.8161 5.17261Z" fill="#2E2E2E" stroke="#2E2E2E" stroke-width="0.3"/>
</svg>
