<svg width="21" height="43" viewBox="0 0 21 43" fill="none" xmlns="http://www.w3.org/2000/svg">
<path d="M9.86608 6.70708C11.8009 6.50857 13.6861 4.20506 13.4735 1.14429C10.6401 1.55598 8.89798 4.72548 9.86608 6.70708Z" fill="#2E2E2E"/>
<path d="M6.89166 10.7825C7.93211 9.94412 9.01907 6.42442 6.7361 3.9563C3.79437 6.22657 5.71767 10.156 6.89166 10.7825Z" fill="#2E2E2E"/>
<path d="M5.92242 16.7266C6.52534 15.5196 6.32653 11.5219 2.81729 10.7669C1.30993 13.7844 4.60009 16.6597 5.92242 16.7266Z" fill="#2E2E2E"/>
<path d="M6.14522 23.3032C6.35337 21.9644 4.84077 17.7927 1.27569 18.1876C0.755255 21.5346 4.38084 23.5737 6.14522 23.3032Z" fill="#2E2E2E"/>
<path d="M8.3309 29.6717C8.19482 28.3032 5.46025 24.4465 1.7417 25.0504C2.12866 29.6717 7.05585 30.1051 8.3309 29.6717Z" fill="#2E2E2E"/>
<path d="M12.3096 35.5483C11.8681 34.0633 7.69843 30.2357 3.55127 31.4175C5.13368 36.1104 10.9348 36.2023 12.3096 35.5483Z" fill="#2E2E2E"/>
<path d="M17.41 40.5618C16.6653 39.2097 11.9984 36.317 8.19873 38.3886C10.0602 41.769 14.9782 42.1563 17.41 40.5618Z" fill="#2E2E2E"/>
<path d="M18.6098 39.4644C19.8427 39.0084 21.3815 35.1026 18.1468 33.087C15.1938 35.6785 16.9523 38.5198 18.6098 39.4644Z" fill="#2E2E2E"/>
<path d="M13.6644 34.953C14.9643 34.7806 17.1668 31.2569 14.4342 28.5731C11.004 30.4499 12.8402 33.9096 13.6644 34.953Z" fill="#2E2E2E"/>
<path d="M9.72851 29.3775C10.9292 29.4086 13.063 26.8469 11.3216 24.0159C8.42196 25.8391 9.12581 28.3141 9.72851 29.3775Z" fill="#2E2E2E"/>
<path d="M7.12661 23.1738C8.27146 23.4548 10.9023 21.8553 9.96133 18.6105C6.67747 18.6883 6.8933 22.066 7.12661 23.1738Z" fill="#2E2E2E"/>
<path d="M7.08398 16.926C7.91411 17.479 11.3211 16.5295 11.3202 13.5073C8.44961 12.8658 7.10939 15.9127 7.08398 16.926Z" fill="#2E2E2E"/>
<path d="M8.24268 11.3774C9.07274 11.9304 12.6946 11.5756 12.4787 8.43071C10.1789 8.00946 8.26809 10.3641 8.24268 11.3774Z" fill="#2E2E2E"/>
</svg>
