<svg width="32" height="32" viewBox="0 0 32 32" fill="none" xmlns="http://www.w3.org/2000/svg">
<path d="M26.3035 17.0909C26.1695 16.5552 25.6265 16.2294 25.0908 16.3633L19.7575 17.6966C19.2217 17.8306 18.8959 18.3736 19.0299 18.9093C19.1639 19.4452 19.7068 19.7709 20.2425 19.6369L25.5759 18.3036C26.1116 18.1697 26.4375 17.6268 26.3035 17.0909Z" fill="#2E2E2E"/>
<path d="M26.3333 7.3335C26.3333 6.7812 25.8856 6.3335 25.3333 6.3335C24.7811 6.3335 24.3333 6.7812 24.3333 7.3335V11.9183L23.3343 11.4437L23.3225 11.4378C23.2572 11.4044 22.9817 11.2636 22.6667 11.2636C22.3516 11.2636 22.0761 11.4044 22.0108 11.4378L21.9991 11.4437L21 11.9183V9.26686C21 8.71456 20.5523 8.26686 20 8.26686C19.4477 8.26686 19 8.71456 19 9.26686V12.7164C18.9997 12.8647 18.9995 13.0761 19.0279 13.2576C19.0625 13.4796 19.1765 13.9078 19.6201 14.1682C20.0473 14.4192 20.4651 14.326 20.6637 14.2642C20.8368 14.2104 21.0267 14.12 21.1683 14.0525L22.6667 13.3408L24.1651 14.0525C24.3067 14.12 24.4965 14.2104 24.6696 14.2642C24.8683 14.326 25.286 14.4192 25.7132 14.1682C26.1568 13.9078 26.2708 13.4796 26.3055 13.2576C26.3339 13.0761 26.3336 12.8647 26.3333 12.7164V7.3335Z" fill="#2E2E2E"/>
<path d="M5.69654 11.7574C5.83048 11.2217 6.37343 10.8959 6.90922 11.0298L12.2425 12.3632C12.7783 12.4971 13.1041 13.0401 12.9702 13.5758C12.8362 14.1117 12.2933 14.4374 11.7575 14.3034L6.42415 12.9701C5.88835 12.8362 5.56259 12.2932 5.69654 11.7574Z" fill="#2E2E2E"/>
<path d="M6.90922 16.3633C6.37343 16.2294 5.83048 16.5552 5.69654 17.0909C5.56259 17.6268 5.88835 18.1697 6.42415 18.3036L11.7575 19.6369C12.2933 19.7709 12.8362 19.4452 12.9702 18.9093C13.1041 18.3736 12.7783 17.8306 12.2425 17.6966L6.90922 16.3633Z" fill="#2E2E2E"/>
<path fill-rule="evenodd" clip-rule="evenodd" d="M30.3334 6.57772C30.3334 4.62664 28.7796 2.95338 26.7412 3.0244C25.2234 3.07726 23.2395 3.23514 21.7132 3.69206C20.3866 4.08924 18.8942 4.86504 17.731 5.53829C16.6402 6.16957 15.2823 6.20106 14.1771 5.61672C12.8498 4.91486 11.1036 4.08294 9.5885 3.68314C8.30742 3.34509 6.68691 3.18272 5.37123 3.10186C3.29358 2.97417 1.66669 4.66498 1.66669 6.66386V21.5249C1.66669 23.5731 3.32506 25.1723 5.29074 25.2953C6.56909 25.3753 8.00757 25.529 9.07821 25.8115C10.4016 26.1607 12.0382 26.9373 13.3595 27.6415C15.0039 28.5181 16.9962 28.5181 18.6406 27.6415C19.9619 26.9373 21.5984 26.1607 22.9219 25.8115C23.9924 25.529 25.431 25.3753 26.7094 25.2953C28.675 25.1723 30.3334 23.5731 30.3334 21.5249V6.57772ZM26.8108 5.02318C27.6306 4.99462 28.3334 5.66893 28.3334 6.57772V21.5249C28.3334 22.4393 27.5756 23.2371 26.5844 23.2991C25.2776 23.3809 23.6788 23.5433 22.4115 23.8777C20.8511 24.2895 19.0436 25.1602 17.6998 25.8766C17.4754 25.9962 17.2407 26.0905 17 26.1593V7.92284C17.6031 7.80212 18.1895 7.58369 18.7327 7.26929C19.8667 6.61304 21.1932 5.93544 22.2868 5.60804C23.5524 5.22917 25.319 5.07514 26.8108 5.02318ZM15 7.96676C14.3934 7.87242 13.7987 7.67898 13.2422 7.38476C11.9398 6.69608 10.361 5.95546 9.07821 5.61696C7.99526 5.33118 6.53653 5.17725 5.24854 5.09809C4.40326 5.04614 3.66669 5.73428 3.66669 6.66386V21.5249C3.66669 22.4393 4.42443 23.2371 5.41559 23.2991C6.72237 23.3809 8.32125 23.5433 9.5885 23.8777C11.149 24.2895 12.9564 25.1602 14.3003 25.8766C14.5247 25.9962 14.7594 26.0905 15 26.1593V7.96676Z" fill="#2E2E2E"/>
</svg>
