<svg width="21" height="43" viewBox="0 0 21 43" fill="none" xmlns="http://www.w3.org/2000/svg">
<path d="M11.1339 6.70708C9.19912 6.50857 7.31388 4.20506 7.52647 1.14429C10.3599 1.55598 12.102 4.72548 11.1339 6.70708Z" fill="#2E2E2E"/>
<path d="M14.1083 10.7825C13.0679 9.94412 11.9809 6.42442 14.2639 3.9563C17.2056 6.22657 15.2823 10.156 14.1083 10.7825Z" fill="#2E2E2E"/>
<path d="M15.0776 16.7266C14.4747 15.5196 14.6735 11.5219 18.1827 10.7669C19.6901 13.7844 16.3999 16.6597 15.0776 16.7266Z" fill="#2E2E2E"/>
<path d="M14.8548 23.3032C14.6466 21.9644 16.1592 17.7927 19.7243 18.1876C20.2447 21.5346 16.6192 23.5737 14.8548 23.3032Z" fill="#2E2E2E"/>
<path d="M12.6691 29.6717C12.8052 28.3032 15.5397 24.4465 19.2583 25.0504C18.8713 29.6717 13.9442 30.1051 12.6691 29.6717Z" fill="#2E2E2E"/>
<path d="M8.69039 35.5483C9.13188 34.0633 13.3016 30.2357 17.4487 31.4175C15.8663 36.1104 10.0652 36.2023 8.69039 35.5483Z" fill="#2E2E2E"/>
<path d="M3.59004 40.5618C4.3347 39.2097 9.0016 36.317 12.8013 38.3886C10.9398 41.769 6.02177 42.1563 3.59004 40.5618Z" fill="#2E2E2E"/>
<path d="M2.3902 39.4644C1.15729 39.0084 -0.381454 35.1026 2.85325 33.087C5.8062 35.6785 4.04766 38.5198 2.3902 39.4644Z" fill="#2E2E2E"/>
<path d="M7.33562 34.953C6.03565 34.7806 3.83318 31.2569 6.56583 28.5731C9.99604 30.4499 8.1598 33.9096 7.33562 34.953Z" fill="#2E2E2E"/>
<path d="M11.2715 29.3775C10.0708 29.4086 7.93704 26.8469 9.67836 24.0159C12.578 25.8391 11.8742 28.3141 11.2715 29.3775Z" fill="#2E2E2E"/>
<path d="M13.8734 23.1738C12.7285 23.4548 10.0977 21.8553 11.0387 18.6105C14.3225 18.6883 14.1067 22.066 13.8734 23.1738Z" fill="#2E2E2E"/>
<path d="M13.916 16.926C13.0859 17.479 9.67892 16.5295 9.67976 13.5073C12.5504 12.8658 13.8906 15.9127 13.916 16.926Z" fill="#2E2E2E"/>
<path d="M12.7573 11.3774C11.9273 11.9304 8.30539 11.5756 8.52127 8.43071C10.8211 8.00946 12.7319 10.3641 12.7573 11.3774Z" fill="#2E2E2E"/>
</svg>
