<svg width="17" height="17" viewBox="0 0 17 17" fill="none" xmlns="http://www.w3.org/2000/svg">
<path d="M6.16801 3.64461C7.02157 2.11339 7.44833 1.34778 8.08643 1.34778C8.72452 1.34778 9.15129 2.11338 10.0048 3.6446L10.2256 4.04075C10.4682 4.47587 10.5895 4.69344 10.7786 4.83698C10.9677 4.98053 11.2032 5.03382 11.6742 5.14039L12.1031 5.23742C13.7605 5.61245 14.5893 5.79996 14.7865 6.43402C14.9837 7.06805 14.4187 7.72879 13.2887 9.05012L12.9964 9.39198C12.6753 9.76746 12.5147 9.95521 12.4424 10.1875C12.3703 10.4198 12.3945 10.6703 12.443 11.1713L12.4872 11.6274C12.6581 13.3904 12.7435 14.2719 12.2273 14.6637C11.7111 15.0556 10.9351 14.6983 9.38317 13.9838L8.98167 13.7989C8.54069 13.5958 8.32019 13.4943 8.08643 13.4943C7.85266 13.4943 7.63217 13.5958 7.19118 13.7989L6.78968 13.9838C5.23773 14.6983 4.46176 15.0556 3.94555 14.6637C3.42934 14.2719 3.51476 13.3904 3.68561 11.6274L3.7298 11.1713C3.77835 10.6703 3.80262 10.4198 3.73039 10.1875C3.65817 9.95521 3.49761 9.76746 3.17651 9.39198L2.88416 9.05012C1.75417 7.72879 1.18918 7.06805 1.38635 6.43402C1.58353 5.79996 2.41229 5.61245 4.06981 5.23742L4.49863 5.14039C4.96964 5.03382 5.20515 4.98053 5.39425 4.83698C5.58334 4.69344 5.70463 4.47587 5.94718 4.04075L6.16801 3.64461Z" fill="#FFBB6C"/>
</svg>
