<svg width="75" height="23" viewBox="0 0 75 23" fill="none" xmlns="http://www.w3.org/2000/svg">
<path d="M35.5733 3.64461C36.4268 2.11339 36.8536 1.34778 37.4917 1.34778C38.1298 1.34778 38.5566 2.11338 39.4101 3.6446L39.6309 4.04075C39.8735 4.47587 39.9947 4.69344 40.1839 4.83698C40.373 4.98053 40.6084 5.03382 41.0795 5.14039L41.5083 5.23742C43.1658 5.61245 43.9946 5.79996 44.1918 6.43402C44.389 7.06805 43.824 7.72879 42.694 9.05012L42.4016 9.39198C42.0805 9.76746 41.9199 9.95521 41.8477 10.1875C41.7755 10.4198 41.7998 10.6703 41.8483 11.1713L41.8925 11.6274C42.0633 13.3904 42.1488 14.2719 41.6326 14.6637C41.1163 15.0556 40.3404 14.6983 38.7884 13.9838L38.3869 13.7989C37.946 13.5958 37.7255 13.4943 37.4917 13.4943C37.2579 13.4943 37.0374 13.5958 36.5965 13.7989L36.195 13.9838C34.643 14.6983 33.867 15.0556 33.3508 14.6637C32.8346 14.2719 32.92 13.3904 33.0909 11.6274L33.1351 11.1713C33.1836 10.6703 33.2079 10.4198 33.1357 10.1875C33.0634 9.95521 32.9029 9.76746 32.5818 9.39198L32.2894 9.05012C31.1594 7.72879 30.5944 7.06805 30.7916 6.43402C30.9888 5.79996 31.8176 5.61245 33.4751 5.23742L33.9039 5.14039C34.3749 5.03382 34.6104 4.98053 34.7995 4.83698C34.9886 4.69344 35.1099 4.47587 35.3525 4.04075L35.5733 3.64461Z" fill="#FFBB6C"/>
<path d="M20.8706 6.58516C21.7242 5.05394 22.151 4.28833 22.7891 4.28833C23.4272 4.28833 23.8539 5.05394 24.7075 6.58515L24.9283 6.9813C25.1709 7.41642 25.2921 7.63399 25.4813 7.77754C25.6704 7.92109 25.9058 7.97437 26.3769 8.08094L26.8057 8.17797C28.4632 8.553 29.292 8.74051 29.4892 9.37457C29.6863 10.0086 29.1213 10.6693 27.9913 11.9907L27.699 12.3325C27.3779 12.708 27.2173 12.8958 27.1451 13.128C27.0729 13.3603 27.0972 13.6108 27.1457 14.1118L27.1899 14.5679C27.3607 16.3309 27.4462 17.2124 26.93 17.6043C26.4137 17.9961 25.6377 17.6388 24.0858 16.9243L23.6843 16.7394C23.2433 16.5364 23.0228 16.4348 22.7891 16.4348C22.5553 16.4348 22.3348 16.5364 21.8938 16.7394L21.4923 16.9243C19.9404 17.6388 19.1644 17.9961 18.6482 17.6043C18.132 17.2124 18.2174 16.3309 18.3882 14.5679L18.4324 14.1118C18.481 13.6108 18.5053 13.3603 18.433 13.128C18.3608 12.8958 18.2003 12.708 17.8791 12.3325L17.5868 11.9907C16.4568 10.6693 15.8918 10.0086 16.089 9.37457C16.2862 8.74051 17.1149 8.553 18.7724 8.17797L19.2013 8.08094C19.6723 7.97437 19.9078 7.92109 20.0969 7.77754C20.286 7.63399 20.4073 7.41643 20.6498 6.9813L20.8706 6.58516Z" fill="#FFBB6C"/>
<path d="M50.2061 6.93519C51.0597 5.40398 51.4864 4.63837 52.1245 4.63837C52.7626 4.63837 53.1894 5.40397 54.0429 6.93519L54.2637 7.33133C54.5063 7.76646 54.6276 7.98402 54.8167 8.12757C55.0058 8.27112 55.2413 8.32441 55.7123 8.43098L56.1412 8.528C57.7986 8.90304 58.6274 9.09055 58.8246 9.72461C59.0218 10.3586 58.4568 11.0194 57.3268 12.3407L57.0344 12.6826C56.7133 13.0581 56.5528 13.2458 56.4805 13.4781C56.4083 13.7104 56.4326 13.9608 56.4811 14.4619L56.5253 14.918C56.6962 16.681 56.7816 17.5624 56.2654 17.9543C55.7492 18.3462 54.9732 17.9889 53.4213 17.2744L53.0198 17.0895C52.5788 16.8864 52.3583 16.7849 52.1245 16.7849C51.8907 16.7849 51.6703 16.8864 51.2293 17.0895L50.8278 17.2744C49.2758 17.9889 48.4998 18.3462 47.9836 17.9543C47.4674 17.5624 47.5529 16.681 47.7237 14.918L47.7679 14.4619C47.8164 13.9608 47.8407 13.7104 47.7685 13.4781C47.6963 13.2458 47.5357 13.0581 47.2146 12.6826L46.9222 12.3407C45.7923 11.0194 45.2273 10.3586 45.4244 9.72461C45.6216 9.09055 46.4504 8.90304 48.1079 8.528L48.5367 8.43098C49.0077 8.32441 49.2432 8.27112 49.4323 8.12757C49.6214 7.98402 49.7427 7.76646 49.9853 7.33133L50.2061 6.93519Z" fill="#FFBB6C"/>
<path d="M6.16801 10.0158C7.02157 8.48454 7.44833 7.71893 8.08643 7.71893C8.72452 7.71893 9.15129 8.48454 10.0048 10.0158L10.2256 10.4119C10.4682 10.847 10.5895 11.0646 10.7786 11.2081C10.9677 11.3517 11.2032 11.405 11.6742 11.5115L12.1031 11.6086C13.7605 11.9836 14.5893 12.1711 14.7865 12.8052C14.9837 13.4392 14.4187 14.0999 13.2887 15.4213L12.9964 15.7631C12.6753 16.1386 12.5147 16.3264 12.4424 16.5586C12.3703 16.7909 12.3945 17.0414 12.443 17.5424L12.4872 17.9985C12.6581 19.7615 12.7435 20.643 12.2273 21.0349C11.7111 21.4267 10.9351 21.0694 9.38317 20.3549L8.98167 20.17C8.54069 19.967 8.32019 19.8654 8.08643 19.8654C7.85266 19.8654 7.63217 19.967 7.19118 20.17L6.78968 20.3549C5.23773 21.0694 4.46176 21.4267 3.94555 21.0349C3.42934 20.643 3.51476 19.7615 3.68561 17.9985L3.7298 17.5424C3.77835 17.0414 3.80262 16.7909 3.73039 16.5586C3.65817 16.3264 3.49761 16.1386 3.17651 15.7631L2.88416 15.4213C1.75417 14.0999 1.18918 13.4392 1.38635 12.8052C1.58353 12.1711 2.41229 11.9836 4.06981 11.6086L4.49863 11.5115C4.96964 11.405 5.20515 11.3517 5.39425 11.2081C5.58334 11.0646 5.70463 10.847 5.94718 10.4119L6.16801 10.0158Z" fill="#FFBB6C"/>
<path d="M64.5064 9.94575C65.3599 8.41454 65.7867 7.64893 66.4248 7.64893C67.0629 7.64893 67.4897 8.41453 68.3432 9.94575L68.564 10.3419C68.8066 10.777 68.9279 10.9946 69.117 11.1381C69.3061 11.2817 69.5416 11.335 70.0126 11.4415L70.4414 11.5386C72.0989 11.9136 72.9277 12.1011 73.1249 12.7352C73.3221 13.3692 72.7571 14.0299 71.6271 15.3513L71.3347 15.6931C71.0136 16.0686 70.8531 16.2564 70.7808 16.4886C70.7086 16.7209 70.7329 16.9714 70.7814 17.4724L70.8256 17.9285C70.9965 19.6915 71.0819 20.573 70.5657 20.9649C70.0495 21.3567 69.2735 20.9994 67.7215 20.2849L67.32 20.1C66.8791 19.897 66.6586 19.7954 66.4248 19.7954C66.191 19.7954 65.9705 19.897 65.5296 20.1L65.1281 20.2849C63.5761 20.9994 62.8001 21.3567 62.2839 20.9649C61.7677 20.573 61.8531 19.6915 62.024 17.9285L62.0682 17.4724C62.1167 16.9714 62.141 16.7209 62.0688 16.4886C61.9965 16.2564 61.836 16.0686 61.5149 15.6931L61.2225 15.3513C60.0926 14.0299 59.5276 13.3692 59.7247 12.7352C59.9219 12.1011 60.7507 11.9136 62.4082 11.5386L62.837 11.4415C63.308 11.335 63.5435 11.2817 63.7326 11.1381C63.9217 10.9946 64.043 10.777 64.2856 10.3419L64.5064 9.94575Z" fill="#FFBB6C"/>
</svg>
